Coordinates
nRows=8
nColumns=38

# SIMM Motion File Header:
name Coordinates
datacolumns 38
datarows 8
otherdata 1
range 0.73433000000000004000 0.74133000000000004000

Units are S.I. units (second, meters, Newtons, ...)
Angles are in degrees.

endheader
time	pelvis_tilt	pelvis_list	pelvis_rotation	pelvis_tx	pelvis_ty	pelvis_tz	hip_flexion_r	hip_adduction_r	hip_rotation_r	knee_angle_r	ankle_angle_r	subtalar_angle_r	mtp_angle_r	hip_flexion_l	hip_adduction_l	hip_rotation_l	knee_angle_l	ankle_angle_l	subtalar_angle_l	mtp_angle_l	lumbar_extension	lumbar_bending	lumbar_rotation	arm_flex_r	arm_add_r	arm_rot_r	elbow_flex_r	pro_sup_r	wrist_flex_r	wrist_dev_r	arm_flex_l	arm_add_l	arm_rot_l	elbow_flex_l	pro_sup_l	wrist_flex_l	wrist_dev_l
      0.73433000000000004000	     -1.01103077421743180000	      8.66372821856683470000	      3.50221148387947650000	      0.87740935153563626000	      1.04016064116562350000	     -0.32554227490142745000	     28.70455415997861300000	     -5.83930740903330840000	      6.14614147596042400000	    -87.17663507362705400000	     11.43811086843879600000	     -0.00000000000005506987	      0.00000000000009118796	     13.05340946743737800000	     14.56052882456801500000	     -0.53198828021768452000	    -39.30155144897531700000	     25.97859557739548500000	     -0.00000000000000404543	     -0.00000000000018662653	    -17.78403352253720400000	     -8.75335052228891540000	    -11.70312126430441800000	    -21.26191817294058600000	    -17.46462154227013400000	      0.88940683565896828000	     81.11210200779230200000	    106.34259151129316000000	      0.00000000000000908319	     -0.00000000000007615364	     -8.54462495762727060000	    -20.67634266556932900000	      2.94790862525919330000	    107.55102638626097000000	    100.45682368333405000000	      0.00000000000004072758	      0.00000000000003846908
      0.73533000000000004000	     -1.05229309307778740000	      8.61197647208556740000	      3.54421887007657730000	      0.87738187870279372000	      1.04040005987080740000	     -0.32559342831716681000	     28.85754028780848300000	     -5.79476137049553590000	      6.13429748364329170000	    -87.00405154070365700000	     11.50122325881925200000	     -0.00000000000005525829	      0.00000000000009145119	     12.89436168239477200000	     14.51710648852154000000	     -0.44580232193418945000	    -39.17104588317358300000	     25.97393699105880700000	     -0.00000000000000430470	     -0.00000000000018734047	    -17.73681390710284600000	     -8.67377850052808520000	    -11.82900995033805800000	    -21.42556380561429900000	    -17.51395941591691500000	      0.94091419620951500000	     81.20412500264492900000	    106.38119176196695000000	      0.00000000000000906185	     -0.00000000000007634897	     -8.53326779487956880000	    -20.65408357030975800000	      2.84495780330874700000	    107.73355131866249000000	    100.48733956760812000000	      0.00000000000004082702	      0.00000000000003857168
      0.73633000000000004000	     -1.09444743993123450000	      8.55877482564394220000	      3.58633185275806320000	      0.87735808133954429000	      1.04064300304760150000	     -0.32564496327170289000	     29.00956850873765400000	     -5.74938556007246860000	      6.12081918105720390000	    -86.82722477652664800000	     11.56319687099250300000	     -0.00000000000005544516	      0.00000000000009171502	     12.73503326534019700000	     14.47218992081105800000	     -0.35856536048875765000	    -39.03800117160314900000	     25.96725965772189000000	     -0.00000000000000456520	     -0.00000000000018802392	    -17.68775662730762800000	     -8.59248028397520080000	    -11.95403507254436800000	    -21.59119358719559400000	    -17.56421942873068800000	      0.99080199390372592000	     81.30120556049425300000	    106.42713588044720000000	      0.00000000000000903095	     -0.00000000000007654116	     -8.52382942733368590000	    -20.63132601993312000000	      2.74205772958379110000	    107.91799179913080000000	    100.51748019207339000000	      0.00000000000004092601	      0.00000000000003867157
      0.73733000000000004000	     -1.13750630349024660000	      8.50409982951585520000	      3.62850624036556770000	      0.87733793999527798000	      1.04088937223123980000	     -0.32569680045046717000	     29.16066082213523500000	     -5.70314237255989110000	      6.10572347564047750000	    -86.64616089130450400000	     11.62395626018097000000	     -0.00000000000005563200	      0.00000000000009197924	     12.57547112594227200000	     14.42573745508255500000	     -0.27034378360681321000	    -38.90244798233513300000	     25.95854889810933800000	     -0.00000000000000483006	     -0.00000000000018865174	    -17.63683817788691100000	     -8.50945127507987030000	    -12.07810106493827400000	    -21.75876211917655600000	    -17.61534920477365100000	      1.03899734487180570000	     81.40307878321796400000	    106.48009333816771000000	      0.00000000000000899922	     -0.00000000000007673464	     -8.51619727022782410000	    -20.60804811052055300000	      2.63934810091510120000	    108.10417299853673000000	    100.54721927067527000000	      0.00000000000004102458	      0.00000000000003876809
      0.73833000000000004000	     -1.18148020474754060000	      8.44793000329314480000	      3.67069629928846730000	      0.87732143262954310000	      1.04113907170390370000	     -0.32574885480114968000	     29.31083748913950900000	     -5.65599448182202290000	      6.08902992289978600000	    -86.46086552605716200000	     11.68342923070252200000	     -0.00000000000005581926	      0.00000000000009224271	     12.41572161492010200000	     14.37770911792238200000	     -0.18120651725414369000	    -38.76442011674632900000	     25.94779012547176200000	     -0.00000000000000510905	     -0.00000000000018927057	    -17.58403853507428500000	     -8.42468975939439880000	    -12.20111399321102600000	    -21.92822291993261900000	    -17.66729598512776500000	      1.08543155140006360000	     81.50948214898574000000	    106.53971699985547000000	      0.00000000000000897066	     -0.00000000000007692092	     -8.51026184288682330000	    -20.58423072915530800000	      2.53696628628502730000	    108.29192608206760000000	    100.57652857810446000000	      0.00000000000004112313	      0.00000000000003886397
      0.73933000000000004000	     -1.22637768381990720000	      8.39024607285664810000	      3.71285487633254090000	      0.87730853482984794000	      1.04139200860025620000	     -0.32580103580599701000	     29.46011694341047300000	     -5.60790516259242810000	      6.07076071748493980000	    -86.27134384205309900000	     11.74154711674865600000	     -0.00000000000005600646	      0.00000000000009250576	     12.25583046198488700000	     14.32806694665220000000	     -0.09122489927551154200	    -38.62395449353837800000	     25.93496886761670000000	     -0.00000000000000537783	     -0.00000000000018992472	    -17.52934119166731400000	     -8.33819708467188290000	    -12.32298178239843400000	    -22.09952858981149100000	    -17.72000669286739300000	      1.13004016073109190000	     81.62015615338238200000	    106.60564529904475000000	      0.00000000000000894689	     -0.00000000000007710479	     -8.50591698412977240000	    -20.55985760649211600000	      2.43504710718600360000	    108.48108842369962000000	    100.60537808667145000000	      0.00000000000004122138	      0.00000000000003896020
      0.74033000000000004000	     -1.27220528479956110000	      8.33103120824345390000	      3.75493352002452680000	      0.87729922003338412000	      1.04164809296148310000	     -0.32585324776588720000	     29.60851570092727100000	     -5.55883860876320760000	      6.05094068338498130000	    -86.07760050695981100000	     11.79824506309631500000	     -0.00000000000005619737	      0.00000000000009276876	     12.09584270792303500000	     14.27677529831279000000	     -0.00047254991346727161	    -38.48109109018420100000	     25.92007024629251800000	     -0.00000000000000563397	     -0.00000000000019060216	    -17.47273319211519600000	     -8.24997783804981570000	    -12.44361444250011800000	    -22.27263097311054500000	    -17.77342799685836600000	      1.17276302475287200000	     81.73484494858628600000	    106.67750441402690000000	      0.00000000000000892183	     -0.00000000000007729101	     -8.50306007081892010000	    -20.53491536685406500000	      2.33372261811228120000	    108.67150382193641000000	    100.63373610285730000000	      0.00000000000004131942	      0.00000000000003905738
      0.74133000000000004000	     -1.31896754608622620000	      8.27027126353008590000	      3.79688260408704230000	      0.87729345971495243000	      1.04190723788716460000	     -0.32590539011202452000	     29.75604827274754200000	     -5.50876025657854470000	      6.02959725829003100000	    -85.87963968801173600000	     11.85346230545052700000	     -0.00000000000005638826	      0.00000000000009303195	     11.93580265205624400000	     14.22380117391576900000	      0.09097475394495960200	    -38.33587298811185900000	     25.90307969158536100000	     -0.00000000000000587757	     -0.00000000000019129664	    -17.41420516708561200000	     -8.16004002062761200000	    -12.56292429707043600000	    -22.44748131662423400000	    -17.82750638310843900000	      1.21354435952019250000	     81.85329698543125700000	    106.75491044299095000000	      0.00000000000000889979	     -0.00000000000007748312	     -8.50159223498856420000	    -20.50939357823069300000	      2.23312188599253460000	    108.86302271524418000000	    100.66156940453592000000	      0.00000000000004141730	      0.00000000000003915327
